<svg width="34" height="42" viewBox="0 0 34 42" fill="none" xmlns="http://www.w3.org/2000/svg">
<path d="M0.175303 2.89276C0.0753286 1.8327 0.826009 0.887478 1.88458 0.772836C4.60908 0.477774 10.0879 0 17 0C23.9121 0 29.3909 0.477774 32.1154 0.772836C33.174 0.887478 33.9247 1.8327 33.8247 2.89275C32.4305 17.6762 30.6287 30.6216 29.6699 37.0783C29.2837 39.6787 27.2231 41.6615 24.5982 41.8069C22.6875 41.9127 20.1548 42 17 42C13.8452 42 11.3125 41.9127 9.40181 41.8069C6.77688 41.6615 4.71629 39.6787 4.33012 37.0783C3.3713 30.6216 1.56954 17.6762 0.175303 2.89276Z" fill="#ACB4C9"/>
<path fill-rule="evenodd" clip-rule="evenodd" d="M28.1656 13.4819C28.7197 13.5292 29.1239 14.0236 29.0658 14.5766C28.1336 23.4521 27.147 30.7892 26.6019 34.6354C26.3558 36.3717 24.9915 37.7041 23.2415 37.8171C21.7384 37.9142 19.6581 38 17.0005 38C14.343 38 12.2627 37.9142 10.7596 37.8171C9.00954 37.7041 7.64523 36.3717 7.39916 34.6354C6.85409 30.7892 5.86748 23.4521 4.93524 14.5767C4.87715 14.0236 5.28135 13.5292 5.83543 13.4819C8.69371 13.2381 12.6091 13 17.0007 13C21.3921 13 25.3074 13.2381 28.1656 13.4819Z" fill="#576684"/>
</svg>
