<svg width="43" height="43" viewBox="0 0 43 43" fill="none" xmlns="http://www.w3.org/2000/svg">
<path d="M42.596 21.431C42.5971 17.334 41.4304 13.3226 39.2343 9.87226C37.0382 6.42193 33.9048 3.67735 30.2055 1.96386C26.5062 0.250362 22.396 -0.360203 18.3623 0.204534C14.3285 0.76927 10.5403 2.48563 7.44661 5.15016C4.35293 7.8147 2.08354 11.3157 0.907425 15.2381C-0.268691 19.1606 -0.302213 23.34 0.810833 27.2811C1.92388 31.2221 4.13682 34.7594 7.18735 37.4739C10.2379 40.1883 13.9981 41.9659 18.0223 42.596V27.6254H12.619V21.431H18.0223V16.7201C18.0223 11.3411 21.1517 8.38548 26.0146 8.38548C27.6136 8.40804 29.2089 8.54808 30.7876 8.80447V14.0702H28.1535C27.6913 14.0074 27.2209 14.0511 26.778 14.1982C26.3351 14.3453 25.9314 14.5919 25.5973 14.9193C25.2632 15.2466 25.0075 15.6462 24.8497 16.0877C24.6919 16.5292 24.636 17.0011 24.6863 17.4675V21.4763H30.5849L29.6506 27.6707H24.63V42.596C29.6392 41.7978 34.2009 39.2276 37.4943 35.3477C40.7878 31.4678 42.5968 26.533 42.596 21.431Z" fill="#1977F3"/>
</svg>
