<svg width="27" height="24" viewBox="0 0 27 24" fill="none" xmlns="http://www.w3.org/2000/svg">
<path fill-rule="evenodd" clip-rule="evenodd" d="M13.5645 6.95625C13.1886 6.85513 13 6.46691 13 6.07768C13 3.27336 15.2175 1 18.8164 1C19.3339 1 19.855 1.20108 19.954 1.70911C19.9821 1.85338 20 2.02337 20 2.22232C20 2.42126 19.9821 2.59125 19.954 2.73553C19.855 3.24356 19.3339 3.44463 18.8164 3.44463C16.9501 3.44463 14.7373 4.62349 14.7373 6.07768C14.7373 6.46691 14.5487 6.85513 14.1728 6.95625C14.0747 6.98263 13.9712 7 13.8686 7C13.7661 7 13.6625 6.98263 13.5645 6.95625Z" fill="#576684"/>
<path fill-rule="evenodd" clip-rule="evenodd" d="M13.5 23.0565C12.0866 23.6555 10.4967 24 8.775 24C4.30149 24 0 19.3171 0 13.5323C0 7.74751 4.30149 5.26831 8.775 5.26831C10.1966 5.26831 11.8736 5.58051 13.5 6.1725C15.1264 5.58051 16.8034 5.26831 18.225 5.26831C22.6985 5.26831 27 7.74751 27 13.5323C27 19.3171 22.6985 24 18.225 24C16.5033 24 14.9134 23.6555 13.5 23.0565Z" fill="#ACB4C9"/>
<path d="M9 0.555555C9 0.24873 9.24873 0 9.55556 0C12.0102 0 14 1.98985 14 4.44444C14 4.75127 13.7513 5 13.4444 5C10.9898 5 9 3.01015 9 0.555555Z" fill="#576684"/>
</svg>
