<svg width="40" height="42" viewBox="0 0 40 42" fill="none" xmlns="http://www.w3.org/2000/svg">
<path fill-rule="evenodd" clip-rule="evenodd" d="M10.2484 0.155328C10.7841 0.286487 11.0271 0.812974 11.0165 1.36443L10.8167 11.7185C10.8086 12.1351 11.093 12.5153 11.5346 12.5965C11.7235 12.6312 11.9213 12.6571 12.0911 12.6571C12.2381 12.6571 12.3852 12.6377 12.5203 12.6099C12.9012 12.5316 13.1211 12.1906 13.1211 11.8294L12.8842 1.40094C12.8711 0.828208 13.1084 0.247602 13.6633 0.105014C14.2275 -0.0399795 14.9141 -0.034828 15.4696 0.120469C15.9995 0.268587 16.2906 0.776776 16.4211 1.31122C16.9062 3.29755 18.0607 8.69886 17.9975 14.8954C17.9708 17.5124 16.223 19.8578 13.4747 20.4738C13.2021 20.5349 12.9206 20.5931 12.6316 20.6469C12.0985 20.7463 11.7193 21.2343 11.7815 21.773L13.5136 36.7849C13.7942 39.2162 12.2878 41.6013 9.86247 41.9299C9.53812 41.9738 9.24285 42 9 42C8.75715 42 8.46188 41.9738 8.13753 41.9299C5.71222 41.6013 4.20582 39.2162 4.48636 36.7849L6.2185 21.773C6.28067 21.2342 5.90155 20.7462 5.3684 20.6469C5.07949 20.593 4.79814 20.5349 4.52561 20.4738C1.77718 19.8578 0.0291494 17.5123 0.00248841 14.8951C-0.0606324 8.69921 1.09362 3.2984 1.5788 1.3117C1.70939 0.776962 2.00075 0.268518 2.53091 0.120405C3.08641 -0.034789 3.77286 -0.0399292 4.33704 0.104984C4.89212 0.247563 5.12956 0.828371 5.11653 1.40133L4.87937 11.8293C4.87937 12.1905 5.09942 12.5315 5.48045 12.6099C5.61558 12.6376 5.76268 12.6571 5.90975 12.6571C6.07947 12.6571 6.27718 12.6312 6.46601 12.5965C6.90759 12.5153 7.19189 12.1352 7.18386 11.7186L6.98414 1.36442C6.97351 0.812968 7.21653 0.28649 7.75226 0.155331C8.05732 0.0806452 8.46546 0.0235362 9.00033 0.0235362C9.53518 0.0235362 9.94332 0.0806434 10.2484 0.155328Z" fill="#ACB4C9"/>
<path fill-rule="evenodd" clip-rule="evenodd" d="M22.599 13.1966C22.7761 9.40087 23.6019 6.36912 24.4637 4.17347C25.5561 1.39009 28.4129 0 31.403 0C34.0951 0 36.6588 1.24832 37.7243 3.72061C38.6595 5.89063 39.6318 8.97879 39.9683 12.9028C40.2832 16.5745 38.1857 20.0228 34.8121 21.0834C34.3066 21.2424 33.9423 21.7175 34.003 22.244L35.6808 36.7849C35.9614 39.2162 34.455 41.6013 32.0296 41.9299C31.7053 41.9738 31.41 42 31.1672 42C30.9243 42 30.6291 41.9738 30.3047 41.9299C27.8794 41.6013 26.373 39.2162 26.6535 36.7849L28.3449 22.1267C28.4038 21.6156 28.0616 21.1503 27.5764 20.979C24.4318 19.8689 22.437 16.6704 22.599 13.1966Z" fill="#ACB4C9"/>
</svg>
