<svg width="42" height="43" viewBox="0 0 42 43" fill="none" xmlns="http://www.w3.org/2000/svg">
<path d="M41.6005 21.6965C41.6005 19.9513 41.4589 18.6778 41.1524 17.3572H21.2246V25.2339H32.9218C32.686 27.1914 31.4125 30.1393 28.5825 32.1201L28.5428 32.3839L34.8436 37.265L35.2802 37.3086C39.2892 33.606 41.6005 28.1582 41.6005 21.6965Z" fill="#4285F4"/>
<path d="M21.2246 42.4495C26.9552 42.4495 31.7661 40.5627 35.2801 37.3084L28.5825 32.12C26.7902 33.3699 24.3847 34.2424 21.2246 34.2424C15.6118 34.2424 10.8481 30.54 9.14992 25.4225L8.90101 25.4436L2.34935 30.514L2.26367 30.7522C5.75394 37.6856 12.9232 42.4495 21.2246 42.4495Z" fill="#34A853"/>
<path d="M9.15018 25.4226C8.70211 24.102 8.44279 22.6869 8.44279 21.2248C8.44279 19.7626 8.70211 18.3476 9.1266 17.027L9.11474 16.7457L2.48097 11.5939L2.26393 11.6971C0.82542 14.5743 0 17.8053 0 21.2248C0 24.6444 0.82542 27.8751 2.26393 30.7523L9.15018 25.4226Z" fill="#FBBC05"/>
<path d="M21.2246 8.20686C25.2101 8.20686 27.8985 9.92842 29.4315 11.3671L35.4216 5.51843C31.7427 2.09888 26.9552 -3.05176e-05 21.2246 -3.05176e-05C12.9232 -3.05176e-05 5.75394 4.76373 2.26367 11.6971L9.12635 17.027C10.8481 11.9095 15.6118 8.20686 21.2246 8.20686Z" fill="#EB4335"/>
</svg>
