<svg width="27" height="24" viewBox="0 0 27 24" fill="none" xmlns="http://www.w3.org/2000/svg">
<path d="M10.2199 1.79291C10.0675 1.16001 10.293 0.501227 10.9101 0.294036C11.3812 0.135871 12.0596 0 13 0C13.9404 0 14.6188 0.135871 15.0899 0.294036C15.707 0.501227 15.9325 1.16001 15.7801 1.79291C14.9913 5.06914 13.75 7 13.75 7H12.25C12.25 7 11.0087 5.06914 10.2199 1.79291Z" fill="#576684"/>
<path d="M0 16.625C0 10.18 4.92701 5.08487 11.3715 5.00936C11.8923 5.00325 12.4349 5 13 5C13.5651 5 14.1077 5.00325 14.6285 5.00936C21.073 5.08487 26 10.18 26 16.625C26 16.6828 25.9991 16.7399 25.9973 16.7963C25.9479 18.3724 24.5179 19.3583 22.9514 19.5392C21.0205 19.7623 17.8299 20 13 20C8.17011 20 4.97947 19.7623 3.04858 19.5392C1.48213 19.3583 0.0520972 18.3724 0.00268634 16.7963C0.000919053 16.7399 0 16.6828 0 16.625Z" fill="#ACB4C9"/>
<path d="M0 21.5C0 22.9557 1.55717 23.828 3.01214 23.8725C4.99992 23.9333 8.354 24 13.5 24C18.646 24 22.0001 23.9333 23.9879 23.8725C25.4428 23.828 27 22.9557 27 21.5C27 20.5425 25.8483 20.1878 24.8915 20.1512C23.1779 20.0856 19.7453 20 13.5 20C7.25467 20 3.8221 20.0856 2.10851 20.1512C1.1517 20.1878 0 20.5425 0 21.5Z" fill="#576684"/>
<path fill-rule="evenodd" clip-rule="evenodd" d="M17.0858 7.71796C17.326 7.12765 17.9968 6.84482 18.5841 7.08623C21.003 8.08056 22.9184 9.98538 23.9126 12.4039C24.1549 12.9934 23.876 13.6686 23.2896 13.9122C22.7031 14.1557 22.0313 13.8753 21.789 13.2859C21.032 11.4443 19.572 9.98758 17.7143 9.22392C17.127 8.9825 16.8456 8.30826 17.0858 7.71796Z" fill="#576684"/>
</svg>
