<svg width="27" height="24" viewBox="0 0 27 24" fill="none" xmlns="http://www.w3.org/2000/svg">
<path d="M0.275201 10.1772C-0.238987 10.7484 -0.00568055 11.5255 0.750608 11.6858C1.34278 11.8113 2.15676 11.9514 3.25328 12.082C3.22721 12.9444 3.21131 13.9448 3.21131 15.1026C3.21131 18.1892 3.32434 20.1581 3.44182 21.3709C3.5496 22.4837 4.31792 23.3313 5.43391 23.5126C6.88466 23.7482 9.395 24 13.4995 24C17.6041 24 20.1144 23.7482 21.5652 23.5126C22.6812 23.3313 23.4495 22.4837 23.5573 21.3709C23.6747 20.1581 23.7878 18.1892 23.7878 15.1026C23.7878 13.9449 23.7719 12.9445 23.7458 12.0822C24.8427 11.9515 25.6569 11.8114 26.2493 11.6859C27.0057 11.5255 27.239 10.7482 26.7247 10.177C25.8222 9.17482 24.1441 7.46624 21.2164 4.93411C17.8259 2.00179 15.5526 0.726155 14.3967 0.197228C13.822 -0.0657762 13.1784 -0.0657383 12.6037 0.197315C11.448 0.726296 9.1749 2.00195 5.78402 4.93411C2.85552 7.46644 1.17748 9.17509 0.275201 10.1772Z" fill="#ACB4C9"/>
<path d="M17.9753 23.8736C17.9904 23.1094 18 22.1967 18 21.1111C18 18.9084 17.9606 17.4178 17.9156 16.4338C17.8648 15.3252 17.2847 14.4007 16.2951 14.2167C15.6437 14.0956 14.7375 14 13.5 14C12.2625 14 11.3563 14.0956 10.7049 14.2167C9.71527 14.4007 9.13516 15.3252 9.08444 16.4338C9.03942 17.4178 9 18.9084 9 21.1111C9 22.1968 9.00958 23.1094 9.02468 23.8737C10.2468 23.9503 11.724 24 13.4995 24C15.2755 24 16.753 23.9502 17.9753 23.8736Z" fill="#576684"/>
</svg>
