<svg width="31" height="24" viewBox="0 0 31 24" fill="none" xmlns="http://www.w3.org/2000/svg">
<path d="M28 12C28 18.6274 21.9558 24 14.5 24C7.04416 24 1 18.6274 1 12C1 5.37258 7.04416 0 14.5 0C21.9558 0 28 5.37258 28 12Z" fill="#576684"/>
<path d="M17.9027 18.3749C20.9033 17.217 23 14.5746 23 11.5C23 10.2376 22.6465 9.04804 22.0221 8.00419C22.645 7.02117 23 5.88807 23 4.68182C23 4.30526 22.654 4 22.2273 4H14.5C9.80558 4 6 7.35786 6 11.5C6 14.5747 8.09696 17.2173 11.0978 18.3751C9.22906 19.0962 7.71088 20.3932 6.83146 22.0118C9.04185 23.2699 11.6746 24 14.5005 24C17.3265 24 19.9592 23.2699 22.1696 22.0118C21.2901 20.3931 19.7717 19.096 17.9027 18.3749Z" fill="#ACB4C9"/>
<path fill-rule="evenodd" clip-rule="evenodd" d="M12.5714 14.0833C12.9265 14.0833 13.2143 14.3445 13.2143 14.6667C13.2143 15.311 13.7899 15.8333 14.5 15.8333C15.2101 15.8333 15.7857 15.311 15.7857 14.6667C15.7857 14.3445 16.0735 14.0833 16.4286 14.0833C16.7836 14.0833 17.0714 14.3445 17.0714 14.6667C17.0714 15.9553 15.9202 17 14.5 17C13.0798 17 11.9286 15.9553 11.9286 14.6667C11.9286 14.3445 12.2164 14.0833 12.5714 14.0833Z" fill="#576684"/>
<path d="M11.9286 10.875C11.9286 11.3582 11.4968 11.75 10.9643 11.75C10.4317 11.75 10 11.3582 10 10.875C10 10.3918 10.4317 10 10.9643 10C11.4968 10 11.9286 10.3918 11.9286 10.875Z" fill="#576684"/>
<path d="M19 10.875C19 11.3582 18.5683 11.75 18.0357 11.75C17.5032 11.75 17.0714 11.3582 17.0714 10.875C17.0714 10.3918 17.5032 10 18.0357 10C18.5683 10 19 10.3918 19 10.875Z" fill="#576684"/>
</svg>
