<svg width="23" height="23" viewBox="0 0 23 23" fill="none" xmlns="http://www.w3.org/2000/svg">
<g clip-path="url(#clip0_226_4727)">
<g clip-path="url(#clip1_226_4727)">
<path d="M11.5 22.4023C17.5212 22.4023 22.4023 17.5212 22.4023 11.5C22.4023 5.4788 17.5212 0.597656 11.5 0.597656C5.4788 0.597656 0.597656 5.4788 0.597656 11.5C0.597656 17.5212 5.4788 22.4023 11.5 22.4023Z" fill="white"/>
<path d="M11.5 0.000488281C5.15885 0.000488281 0 5.15934 0 11.5004C0 17.8416 5.15885 23.0004 11.5 23.0004C17.8411 23.0004 23 17.8415 23 11.5004C23 5.15942 17.8411 0.000488281 11.5 0.000488281ZM11.5 21.8052C5.81799 21.8052 1.19525 17.1825 1.19525 11.5004C1.19525 5.8184 5.81799 1.19574 11.5 1.19574C17.1819 1.19574 21.8047 5.8184 21.8047 11.5004C21.8047 17.1825 17.182 21.8052 11.5 21.8052Z" fill="#144339"/>
<path d="M11.5003 3.76172C7.2332 3.76172 3.76172 7.2332 3.76172 11.5003C3.76172 15.7674 7.2332 19.2389 11.5003 19.2389C13.3987 19.2389 15.2246 18.5447 16.6417 17.284C16.8884 17.0647 16.9104 16.6869 16.691 16.4404C16.4717 16.1938 16.0941 16.1716 15.8474 16.391C14.6493 17.4567 13.1055 18.0437 11.5002 18.0437C7.89226 18.0437 4.95689 15.1084 4.95689 11.5003C4.95689 7.89234 7.89226 4.95697 11.5002 4.95697C15.1082 4.95697 18.0436 7.89226 18.0436 11.5003C18.0436 12.4514 17.8442 13.3682 17.451 14.2252C17.3134 14.5252 17.445 14.88 17.745 15.0176C18.045 15.1554 18.3998 15.0236 18.5374 14.7236C19.0027 13.7091 19.2387 12.6246 19.2387 11.5002C19.239 7.2332 15.7674 3.76172 11.5003 3.76172Z" fill="#144339"/>
<g clip-path="url(#clip2_226_4727)">
<path d="M10.72 8.43787L12.4652 10.1831C12.6719 10.3898 12.6719 10.7249 12.4652 10.9316C12.2584 11.1383 11.9233 11.1383 11.7166 10.9316L9.97144 9.18639C9.75442 8.96937 9.40262 8.96937 9.18565 9.18639C8.96863 9.40341 8.96863 9.7552 9.18565 9.97217L10.9309 11.7174C11.1376 11.9241 11.1376 12.2592 10.9309 12.4659C10.7241 12.6726 10.389 12.6726 10.1823 12.4659L8.43714 10.7207C8.22012 10.5037 7.86832 10.5037 7.65135 10.7207C7.43433 10.9377 7.43433 11.2895 7.65135 11.5065L9.77082 13.6259L10.629 14.4841C10.9909 14.846 11.5776 14.846 11.9394 14.4841L14.4835 11.94C14.8453 11.5782 14.8453 10.9915 14.4835 10.6296L13.6253 9.77146L11.5058 7.65198C11.2888 7.43502 10.937 7.43502 10.7201 7.65198C10.503 7.86905 10.503 8.2209 10.72 8.43787Z" fill="white"/>
<path d="M21.2807 18.768L13.859 12.5645L12.5629 13.8606L18.7664 21.2822C19.4389 22.0868 20.6566 22.1411 21.3981 21.3996C22.1395 20.6582 22.0852 19.4404 21.2807 18.768ZM20.6404 20.6419C20.4046 20.8778 20.0223 20.8778 19.7864 20.6419C19.5506 20.4061 19.5506 20.0238 19.7864 19.788C20.0223 19.5522 20.4046 19.5522 20.6404 19.788C20.8762 20.0238 20.8762 20.4061 20.6404 20.6419Z" fill="#64C5B1"/>
<path d="M21.6727 21.6739C22.5781 20.7685 22.5044 19.2846 21.5298 18.4699L14.4338 12.5387L14.7576 12.2148C15.2703 11.7023 15.2703 10.8681 14.7576 10.3555L11.7799 7.37776C11.4111 7.00888 10.8141 7.00883 10.4452 7.3777C10.0763 7.74658 10.0762 8.34366 10.4452 8.71248L12.1904 10.4577C12.3223 10.5896 12.1227 10.7891 11.9908 10.6573L10.2456 8.91201C9.87676 8.54318 9.27974 8.54313 8.91081 8.91201C8.54194 9.28088 8.54189 9.87791 8.91081 10.2468L10.656 11.992C10.788 12.1239 10.5879 12.323 10.4565 12.1916L8.71129 10.4464C8.34246 10.0775 7.74539 10.0774 7.37651 10.4464C7.00815 10.8147 7.00888 11.4135 7.37651 11.7811L10.3542 14.7588C10.8668 15.2714 11.701 15.2714 12.2136 14.7588L12.5374 14.435L18.4687 21.531C19.2865 22.5095 20.7708 22.5759 21.6727 21.6739ZM10.9032 14.2099L7.92551 11.2322C7.76915 11.0759 8.00557 10.8386 8.16235 10.9954L9.90756 12.7406C10.4796 13.3127 11.4737 12.913 11.4737 12.0919C11.4737 11.8468 11.3783 11.6164 11.205 11.4431L9.45981 9.69784C9.30412 9.54226 9.53993 9.30438 9.69665 9.461L11.4419 11.2063C11.7996 11.564 12.3817 11.564 12.7394 11.2063C13.0972 10.8486 13.0971 10.2664 12.7394 9.90875L10.9942 8.16354C10.8385 8.00801 11.0742 7.76998 11.231 7.9267L14.2087 10.9044C14.4191 11.1148 14.4192 11.4554 14.2087 11.6659C13.0488 12.8258 12.8173 13.0573 11.6646 14.21C11.4542 14.4203 11.1136 14.4204 10.9032 14.2099ZM19.0643 21.0331L13.0886 13.8839L13.8826 13.0898L21.0319 19.0656C21.662 19.5923 21.7052 20.5436 21.1237 21.125C20.543 21.7056 19.5918 21.664 19.0643 21.0331Z" fill="#144339"/>
<path d="M20.915 19.5134C20.5272 19.1257 19.8997 19.1257 19.5121 19.5134C19.1243 19.9012 19.1243 20.5287 19.5121 20.9163C19.8988 21.3031 20.5282 21.3031 20.915 20.9163C21.3018 20.5296 21.3018 19.9002 20.915 19.5134ZM20.061 20.3674C19.9769 20.2833 19.9769 20.1465 20.061 20.0624C20.1451 19.9783 20.2819 19.9783 20.366 20.0624C20.4501 20.1465 20.4501 20.2832 20.366 20.3674C20.2819 20.4514 20.1451 20.4514 20.061 20.3674Z" fill="#144339"/>
</g>
</g>
</g>
<defs>
<clipPath id="clip0_226_4727">
<rect width="23" height="23" fill="white"/>
</clipPath>
<clipPath id="clip1_226_4727">
<rect width="23" height="23" fill="white"/>
</clipPath>
<clipPath id="clip2_226_4727">
<rect width="15.2087" height="15.2087" fill="white" transform="translate(22.3096 7.10107) rotate(90)"/>
</clipPath>
</defs>
</svg>
