<svg width="221" height="228" viewBox="0 0 221 228" fill="none" xmlns="http://www.w3.org/2000/svg">
<path d="M23.663 100.029C23.663 100.029 62.4339 98.4764 70.8124 34.7453C78.2527 -21.854 143.631 3.90795 162.529 26.4698C187.01 55.6968 173.96 105.973 205.629 112.325C237.298 118.676 216.618 189.292 168.546 182.533C108.746 174.125 123.214 209.069 105.262 223.859C92.3785 234.474 39.5513 224.256 37.7907 185.722C36.3091 153.297 22.6314 153.4 12.9365 149.723C-1.04572 144.42 -9.85605 106.017 23.663 100.029Z" fill="#4AE8C6" fill-opacity="0.3"/>
<path d="M155.462 170.807L117.371 133.168L109.828 140.801L147.92 178.44L155.462 170.807Z" fill="#008064"/>
<path d="M170.013 180.92L140.378 151.637C140.213 151.474 139.947 151.476 139.784 151.641L128.567 162.992C128.404 163.157 128.406 163.423 128.571 163.586L158.206 192.869C158.371 193.032 158.637 193.031 158.8 192.866L170.017 181.514C170.18 181.349 170.178 181.083 170.013 180.92Z" fill="#144339"/>
<path d="M83.6106 152.097C109.816 152.097 131.06 130.853 131.06 104.648C131.06 78.4421 109.816 57.1982 83.6106 57.1982C57.405 57.1982 36.1611 78.4421 36.1611 104.648C36.1611 130.853 57.405 152.097 83.6106 152.097Z" fill="#144339"/>
<path d="M83.6105 144.355C105.54 144.355 123.318 126.577 123.318 104.648C123.318 82.718 105.54 64.9404 83.6105 64.9404C61.6808 64.9404 43.9033 82.718 43.9033 104.648C43.9033 126.577 61.6808 144.355 83.6105 144.355Z" fill="#96E4D4"/>
<g clip-path="url(#clip0_252_2839)">
<path d="M201.84 91.5327C202.275 88.1382 200.98 84.6464 198.286 81.9526L195.046 78.7131C192.353 76.0196 188.862 74.7246 185.467 75.16C182.074 75.5954 179.022 77.7301 177.095 81.0165L155.355 118.101C154.76 119.118 154.925 120.408 155.758 121.241C156.591 122.074 157.882 122.239 158.898 121.644L195.983 99.9048C199.27 97.9782 201.404 94.9265 201.84 91.5327Z" fill="#64C5B1"/>
<path d="M201.84 91.5333C202.276 88.1388 200.98 84.6469 198.286 81.9531L196.667 80.334L155.759 121.242C156.592 122.075 157.882 122.24 158.898 121.645L195.983 99.9054C199.27 97.9788 201.405 94.9271 201.84 91.5333Z" fill="#008064"/>
<path d="M196.174 96.0356L190.666 90.5276C189.655 89.5168 188.016 89.5168 187.005 90.5276C185.994 91.5386 185.994 93.1776 187.005 94.1886L192.513 99.6966C193.524 100.707 195.163 100.707 196.174 99.6964C197.185 98.6855 197.185 97.0465 196.174 96.0356Z" fill="#64C5B1"/>
<path d="M178.636 94.6918L174.981 91.0365C173.97 90.0257 172.331 90.0255 171.32 91.0363C170.309 92.0472 170.309 93.6862 171.32 94.6973L174.975 98.3524C174.975 98.3526 174.975 98.3524 174.975 98.3526C175.985 99.3633 177.624 99.3634 178.635 98.3526C179.646 97.3417 179.646 95.7026 178.636 94.6918Z" fill="#008064"/>
<path d="M211.984 80.2581C211.826 78.8373 210.546 77.8134 209.125 77.9715L201.884 78.7761L208.002 72.6582C209.013 71.6472 209.013 70.0081 208.002 68.9972C206.991 67.9864 205.352 67.9862 204.341 68.9972L198.224 75.1153L199.028 67.8747C199.185 66.4537 198.162 65.1739 196.741 65.0161C195.32 64.8582 194.04 65.8822 193.882 67.3031L192.263 81.878C192.262 81.8833 192.263 81.8887 192.262 81.894C192.261 81.9015 192.259 81.909 192.259 81.9162C192.255 81.9598 192.254 82.0038 192.253 82.0477C192.251 82.0888 192.247 82.1296 192.247 82.1707C192.247 82.1751 192.247 82.1793 192.247 82.1835C192.247 82.2127 192.251 82.2425 192.252 82.2719C192.255 82.3258 192.256 82.3795 192.262 82.4331C192.263 82.4387 192.262 82.4441 192.263 82.45C192.263 82.4529 192.264 82.4557 192.264 82.4588C192.267 82.4883 192.273 82.5168 192.278 82.5461C192.28 82.5583 192.281 82.5705 192.283 82.5825C192.288 82.6108 192.291 82.6395 192.297 82.6676C192.3 82.6855 192.305 82.703 192.309 82.7207C192.316 82.7533 192.324 82.7854 192.333 82.8179C192.339 82.8438 192.345 82.8702 192.352 82.8957C192.357 82.9126 192.364 82.9289 192.369 82.9459C192.374 82.9607 192.379 82.9753 192.384 82.9901C192.393 83.0148 192.4 83.0396 192.409 83.0641C192.416 83.0827 192.423 83.1018 192.43 83.1202C192.44 83.1454 192.452 83.1698 192.462 83.1945C192.484 83.243 192.505 83.2906 192.529 83.3372C192.542 83.3636 192.557 83.3893 192.571 83.4153C192.593 83.4551 192.616 83.4949 192.64 83.5333C192.646 83.5438 192.653 83.5545 192.659 83.565C192.671 83.5838 192.684 83.6023 192.697 83.6208C192.728 83.6662 192.76 83.7098 192.794 83.7528C192.803 83.7645 192.811 83.7773 192.821 83.7889C192.827 83.7973 192.834 83.8055 192.841 83.8136C192.893 83.8759 192.946 83.9366 193.004 83.9939C193.004 83.9943 193.004 83.9946 193.005 83.9949C193.005 83.9955 193.006 83.9959 193.006 83.9963C193.063 84.0536 193.124 84.1073 193.186 84.159C193.195 84.1657 193.203 84.1728 193.211 84.1794C193.223 84.1891 193.235 84.1972 193.247 84.2061C193.29 84.2396 193.334 84.2723 193.379 84.303C193.398 84.3158 193.416 84.3285 193.435 84.3407C193.446 84.3474 193.456 84.3539 193.467 84.3602C193.505 84.3846 193.544 84.407 193.584 84.4289C193.61 84.4434 193.636 84.4577 193.662 84.471C193.709 84.4948 193.757 84.5165 193.805 84.5374C193.83 84.5481 193.854 84.5599 193.88 84.5698C193.898 84.5773 193.917 84.584 193.936 84.5909C193.96 84.6 193.985 84.6075 194.009 84.6157C194.024 84.6207 194.039 84.6263 194.053 84.6308C194.071 84.6362 194.087 84.6428 194.104 84.6478C194.13 84.6553 194.156 84.6607 194.182 84.6675C194.214 84.6757 194.246 84.6838 194.279 84.6911C194.297 84.6949 194.314 84.7001 194.332 84.7033C194.36 84.709 194.389 84.7121 194.417 84.7166C194.429 84.7187 194.442 84.7204 194.454 84.7223C194.483 84.7264 194.512 84.7324 194.541 84.7355C194.544 84.7358 194.547 84.7365 194.55 84.7371C194.555 84.7377 194.561 84.7376 194.567 84.7381C194.62 84.7436 194.674 84.7456 194.727 84.7477C194.757 84.7491 194.787 84.7528 194.817 84.7529C194.821 84.7531 194.825 84.7526 194.829 84.7526C194.869 84.7526 194.909 84.7492 194.95 84.7474C194.994 84.7455 195.04 84.7452 195.083 84.7408C195.09 84.7405 195.096 84.7387 195.103 84.7381C195.104 84.7381 195.105 84.7377 195.106 84.7377C195.111 84.7371 195.117 84.7374 195.122 84.7368L209.697 83.1172C211.118 82.9589 212.141 81.6791 211.984 80.2581Z" fill="#008064"/>
<path d="M211.984 80.2587C211.826 78.8379 210.546 77.814 209.125 77.9721L201.885 78.7767L208.002 72.6587C209.013 71.648 209.013 70.009 208.003 68.998L193.006 83.9949C193.006 83.9953 193.007 83.9956 193.007 83.9959C193.064 84.0533 193.125 84.1069 193.187 84.1587C193.195 84.1654 193.203 84.1725 193.212 84.1791C193.223 84.1888 193.236 84.1969 193.248 84.2058C193.291 84.2393 193.334 84.2719 193.38 84.3027C193.398 84.3155 193.417 84.3282 193.436 84.3404C193.446 84.3471 193.457 84.3535 193.467 84.3599C193.506 84.3843 193.545 84.4066 193.585 84.4286C193.611 84.443 193.637 84.4574 193.663 84.4707C193.71 84.4945 193.758 84.5162 193.806 84.5371C193.831 84.5478 193.855 84.5596 193.88 84.5695C193.899 84.577 193.918 84.5836 193.937 84.5906C193.961 84.5997 193.985 84.6071 194.01 84.6154C194.025 84.6204 194.04 84.626 194.054 84.6305C194.071 84.6359 194.088 84.6424 194.104 84.6474C194.13 84.655 194.157 84.6604 194.183 84.6671C194.215 84.6754 194.247 84.6835 194.279 84.6907C194.297 84.6945 194.315 84.6998 194.333 84.703C194.361 84.7087 194.389 84.7118 194.418 84.7162C194.43 84.7184 194.442 84.72 194.455 84.7219C194.484 84.726 194.512 84.732 194.541 84.7352C194.545 84.7355 194.547 84.7362 194.551 84.7367C194.556 84.7374 194.562 84.7373 194.567 84.7377C194.621 84.7433 194.674 84.7453 194.728 84.7474C194.758 84.7487 194.788 84.7524 194.817 84.7526C194.821 84.7529 194.826 84.7524 194.83 84.7524C194.87 84.7524 194.91 84.749 194.951 84.7473C194.995 84.7454 195.04 84.7451 195.084 84.7407C195.091 84.7404 195.097 84.7386 195.104 84.738C195.105 84.738 195.106 84.7376 195.107 84.7376C195.112 84.7369 195.117 84.7373 195.122 84.7367L209.698 83.1171C211.118 82.9595 212.142 81.6797 211.984 80.2587Z" fill="#144339"/>
</g>
<g clip-path="url(#clip1_252_2839)">
<path d="M67.1354 169.359C64.9589 169.652 63.0095 171.035 61.7871 173.153L60.3171 175.699C59.0948 177.816 58.872 180.195 59.7056 182.227C60.5393 184.258 62.3694 185.796 64.7266 186.444L91.3258 193.76C92.0548 193.961 92.8271 193.644 93.205 192.989C93.583 192.335 93.4713 191.507 92.9334 190.976L73.2979 171.599C71.5578 169.881 69.3115 169.065 67.1354 169.359Z" fill="#64C5B1"/>
<path d="M67.1349 169.359C64.9584 169.653 63.009 171.036 61.7867 173.153L61.052 174.426L93.2049 192.989C93.5826 192.335 93.4708 191.508 92.9329 190.977L73.2975 171.599C71.5573 169.882 69.3111 169.065 67.1349 169.359Z" fill="#008064"/>
<path d="M70.8672 172.123L68.3677 176.452C67.9091 177.247 68.1813 178.263 68.9758 178.721C69.7704 179.18 70.7864 178.908 71.2452 178.114L73.7447 173.784C74.2033 172.99 73.9311 171.974 73.1364 171.515C72.3419 171.056 71.326 171.329 70.8672 172.123Z" fill="#64C5B1"/>
<path d="M72.9475 183.218L71.2887 186.091C70.8301 186.885 71.1022 187.901 71.8966 188.36C72.6912 188.819 73.7072 188.547 74.166 187.752L75.8247 184.879C75.8249 184.879 75.8247 184.879 75.8249 184.879C76.2835 184.085 76.0113 183.069 75.2168 182.61C74.4222 182.151 73.4062 182.423 72.9475 183.218Z" fill="#008064"/>
<path d="M58.4613 164.943C57.6068 165.277 57.1847 166.241 57.5187 167.095L59.2201 171.45L54.4116 168.674C53.617 168.215 52.601 168.487 52.1422 169.282C51.6836 170.076 51.9556 171.092 52.7502 171.551L57.5589 174.327L52.937 175.031C52.03 175.169 51.4067 176.017 51.5448 176.924C51.683 177.831 52.5303 178.454 53.4373 178.316L62.741 176.899C62.7444 176.898 62.7477 176.897 62.751 176.896C62.7559 176.896 62.7608 176.896 62.7654 176.895C62.793 176.89 62.8204 176.883 62.8479 176.877C62.8737 176.871 62.8996 176.867 62.925 176.86C62.9277 176.859 62.9304 176.858 62.933 176.858C62.951 176.853 62.969 176.846 62.987 176.84C63.02 176.83 63.0529 176.819 63.0853 176.807C63.0886 176.806 63.0921 176.805 63.0956 176.804C63.0973 176.803 63.099 176.802 63.1008 176.801C63.1186 176.795 63.1353 176.786 63.1527 176.779C63.1599 176.775 63.1672 176.772 63.1743 176.769C63.1911 176.761 63.2084 176.755 63.2249 176.747C63.2354 176.741 63.2453 176.735 63.2557 176.73C63.2747 176.72 63.2933 176.71 63.312 176.699C63.327 176.691 63.3425 176.683 63.357 176.674C63.3667 176.669 63.3757 176.662 63.3853 176.655C63.3937 176.65 63.4019 176.644 63.4102 176.639C63.4241 176.63 63.4383 176.621 63.4519 176.611C63.4624 176.604 63.473 176.596 63.4832 176.589C63.4972 176.578 63.5104 176.567 63.524 176.556C63.5505 176.535 63.5764 176.514 63.6014 176.492C63.6155 176.479 63.629 176.466 63.6428 176.453C63.6638 176.432 63.6847 176.411 63.7045 176.39C63.71 176.384 63.7155 176.379 63.7209 176.373C63.7305 176.362 63.7398 176.351 63.7493 176.34C63.7722 176.314 63.7939 176.286 63.815 176.258C63.8207 176.251 63.8273 176.243 63.8329 176.236C63.8371 176.23 63.8409 176.224 63.8449 176.219C63.8749 176.176 63.9036 176.133 63.9296 176.088C63.9297 176.088 63.9299 176.087 63.93 176.087C63.9303 176.087 63.9305 176.086 63.9306 176.086C63.9567 176.041 63.9799 175.995 64.0016 175.947C64.0044 175.941 64.0074 175.935 64.0102 175.929C64.0142 175.92 64.0171 175.911 64.0207 175.902C64.0343 175.87 64.0473 175.837 64.0588 175.804C64.0637 175.79 64.0685 175.777 64.0729 175.763C64.0753 175.755 64.0776 175.748 64.0797 175.74C64.0884 175.712 64.0958 175.684 64.1028 175.656C64.1074 175.637 64.112 175.619 64.1159 175.6C64.1229 175.568 64.1284 175.534 64.1334 175.501C64.1359 175.484 64.1392 175.467 64.1411 175.449C64.1426 175.437 64.1436 175.424 64.1448 175.411C64.1464 175.394 64.147 175.378 64.148 175.361C64.1486 175.351 64.1496 175.341 64.15 175.332C64.1505 175.32 64.1519 175.309 64.1522 175.298C64.1526 175.28 64.1514 175.263 64.1514 175.246C64.1511 175.224 64.1509 175.203 64.15 175.182C64.1493 175.17 64.1497 175.158 64.1487 175.147C64.1475 175.128 64.1447 175.11 64.1427 175.092C64.142 175.084 64.141 175.076 64.1402 175.068C64.1379 175.049 64.1369 175.031 64.134 175.012C64.1337 175.01 64.1336 175.008 64.1334 175.006C64.1329 175.003 64.1319 174.999 64.1312 174.996C64.1258 174.962 64.1182 174.928 64.1106 174.894C64.1065 174.876 64.1038 174.857 64.0989 174.838C64.0984 174.836 64.0974 174.833 64.0968 174.831C64.09 174.806 64.0812 174.781 64.0734 174.757C64.0648 174.729 64.0571 174.701 64.0472 174.675C64.0459 174.671 64.0437 174.667 64.0422 174.663C64.042 174.663 64.0416 174.662 64.0414 174.661C64.0401 174.658 64.0395 174.655 64.0383 174.652L60.6135 165.886C60.2793 165.031 59.3159 164.609 58.4613 164.943Z" fill="#008064"/>
<path d="M58.4618 164.943C57.6073 165.276 57.1853 166.24 57.5192 167.094L59.2206 171.449L54.4121 168.673C53.6177 168.214 52.6017 168.487 52.1429 169.281L63.9301 176.086C63.9303 176.086 63.9304 176.086 63.9306 176.085C63.9566 176.041 63.9798 175.994 64.0015 175.947C64.0043 175.94 64.0074 175.934 64.0101 175.928C64.0141 175.919 64.0171 175.91 64.0206 175.901C64.0342 175.869 64.0473 175.837 64.0587 175.803C64.0636 175.79 64.0684 175.776 64.0728 175.762C64.0752 175.755 64.0775 175.747 64.0797 175.739C64.0884 175.712 64.0957 175.683 64.1027 175.655C64.1074 175.637 64.1119 175.618 64.1158 175.6C64.1228 175.567 64.1283 175.534 64.1333 175.5C64.1358 175.483 64.1391 175.466 64.141 175.449C64.1426 175.436 64.1436 175.423 64.1447 175.41C64.1463 175.394 64.1469 175.377 64.1479 175.361C64.1486 175.351 64.1495 175.34 64.15 175.331C64.1504 175.319 64.1518 175.308 64.1521 175.297C64.1525 175.279 64.1514 175.262 64.1513 175.245C64.1511 175.224 64.1508 175.203 64.1499 175.181C64.1492 175.169 64.1496 175.158 64.1486 175.146C64.1474 175.128 64.1447 175.11 64.1427 175.091C64.142 175.083 64.141 175.075 64.1401 175.067C64.1378 175.049 64.1368 175.03 64.1339 175.011C64.1336 175.009 64.1335 175.008 64.1334 175.005C64.1328 175.002 64.1319 174.999 64.1312 174.995C64.1258 174.961 64.1181 174.927 64.1105 174.894C64.1064 174.875 64.1037 174.856 64.0989 174.837C64.0984 174.835 64.0974 174.832 64.0967 174.83C64.09 174.805 64.0812 174.781 64.0735 174.756C64.0649 174.728 64.0572 174.701 64.0472 174.674C64.0459 174.67 64.0438 174.666 64.0422 174.662C64.0421 174.662 64.0417 174.661 64.0414 174.66C64.0402 174.657 64.0396 174.654 64.0384 174.651L60.6135 165.885C60.2799 165.031 59.3165 164.609 58.4618 164.943Z" fill="#144339"/>
</g>
<defs>
<clipPath id="clip0_252_2839">
<rect width="57" height="57" fill="white" transform="translate(155 65)"/>
</clipPath>
<clipPath id="clip1_252_2839">
<rect width="36.5797" height="36.5797" fill="white" transform="translate(58.4678 202.801) rotate(-105)"/>
</clipPath>
</defs>
</svg>
