<svg width="23" height="23" viewBox="0 0 23 23" fill="none" xmlns="http://www.w3.org/2000/svg">
<path d="M14.775 0.564941H8.22461V3.92917H14.775V0.564941Z" fill="#008064"/>
<path d="M17.0353 7.29335H5.96582L8.22536 3.9292H14.7758L17.0353 7.29335Z" fill="white"/>
<path d="M17.0353 7.29346H5.96582V13.1427H17.0353V7.29346Z" fill="#64C5B1"/>
<path d="M15.4536 22.4352H7.5475C6.67396 22.4352 5.96582 21.7271 5.96582 20.8536V13.1426H17.0353V20.8536C17.0353 21.7271 16.3272 22.4352 15.4536 22.4352Z" fill="white"/>
<path d="M15.3402 3.75701V0.564885C15.3402 0.252918 15.0874 0 14.7754 0H8.22487C7.91283 0 7.65999 0.252918 7.65999 0.564885V3.75701C5.27919 7.30178 5.40045 7.05993 5.40045 7.29326C5.40045 7.79586 5.40045 4.27874 5.40045 20.8534C5.40045 22.0371 6.36339 23 7.54701 23H15.4532C16.6368 23 17.5998 22.0371 17.5998 20.8534C17.5998 20.2295 17.5998 7.55718 17.5998 7.29326C17.5998 7.05692 17.6953 7.26336 15.3402 3.75701ZM6.53022 7.85823H16.47V12.5777H6.53022V7.85823ZM8.78976 1.12977H14.2105V3.36423H8.78976V1.12977ZM8.526 4.494H14.4744L15.9751 6.72846H7.02528L8.526 4.494ZM16.47 20.8535C16.47 21.4142 16.0139 21.8703 15.4532 21.8703H7.54701C6.98635 21.8703 6.53022 21.4142 6.53022 20.8535V19.5965H8.20604C8.51809 19.5965 8.77093 19.3436 8.77093 19.0316C8.77093 18.7197 8.51809 18.4668 8.20604 18.4668H6.53022V17.111H8.20604C8.51809 17.111 8.77093 16.8581 8.77093 16.5462C8.77093 16.2342 8.51809 15.9813 8.20604 15.9813H6.53022V13.7075H16.47V20.8535Z" fill="#144339"/>
</svg>
