<svg width="235" height="200" viewBox="0 0 235 200" fill="none" xmlns="http://www.w3.org/2000/svg">
<path d="M159.03 8.7481C159.03 8.7481 127.068 49.2336 75.929 25.0847C24.7902 0.935814 -26.3487 66.2798 17.6876 106.054C61.7239 145.829 18.631 167.685 48.5475 192.061C82.5496 219.767 112.152 163.585 139.142 176.37C198.71 204.587 242.84 193.417 232.897 160.745C215.442 103.393 193.123 99.6626 210.168 69.8311C227.214 39.9996 189.593 -22.0259 159.03 8.7481Z" fill="#4AE8C6" fill-opacity="0.3"/>
<path d="M117.111 95.2853V180.223L51.1637 151.739L51.4783 67.108L117.111 95.2853Z" fill="#008064"/>
<path d="M117.112 95.3359V180.274L182.738 152.773V67.3789L117.112 95.3359Z" fill="#39B097" fill-opacity="0.6"/>
<path d="M117.111 95.2852L183.058 67.6634L117.629 38.6604L51.1637 66.9729L117.111 95.2852Z" fill="#008064"/>
<path d="M33.1546 82.1247L99.5217 114.339C99.7001 114.425 99.902 114.451 100.096 114.412C100.291 114.372 100.467 114.27 100.597 114.121L117.111 95.285L51.1636 66.9727L33.0069 80.5865C32.8827 80.6796 32.7846 80.803 32.7219 80.945C32.6592 81.0869 32.6341 81.2426 32.6489 81.3971C32.6638 81.5515 32.718 81.6996 32.8066 81.827C32.8951 81.9544 33.015 82.0569 33.1546 82.1247V82.1247Z" fill="#30AE92"/>
<path d="M183.058 67.6633L201.373 84.2221C201.485 84.3231 201.57 84.4504 201.62 84.5925C201.67 84.7345 201.684 84.8869 201.66 85.0357C201.637 85.1844 201.576 85.325 201.485 85.4445C201.393 85.564 201.273 85.6588 201.135 85.7201L135.586 114.975C135.411 115.053 135.216 115.073 135.029 115.033C134.841 114.993 134.671 114.895 134.543 114.752L117.111 95.2852L183.058 67.6633Z" fill="#30AE92"/>
<path d="M117.628 38.6603L183.241 67.6633L192.677 65.4762C192.863 65.4332 193.03 65.3327 193.155 65.1891C193.28 65.0456 193.357 64.8661 193.374 64.6765C193.391 64.4868 193.348 64.2965 193.251 64.1327C193.154 63.9689 193.008 63.84 192.833 63.7642L132.92 37.8042C132.789 37.7474 132.647 37.7224 132.504 37.7314L117.628 38.6603Z" fill="#30AE92"/>
<path d="M117.629 38.6603L52.3837 67.1079L44.1359 65.7219C43.9449 65.6862 43.7705 65.5901 43.6384 65.4477C43.5062 65.3053 43.4235 65.1242 43.4023 64.9311C43.3811 64.738 43.4225 64.5432 43.5206 64.3755C43.6186 64.2078 43.768 64.0761 43.9467 63.9999L105.34 37.5417C105.476 37.484 105.623 37.4603 105.77 37.4727L117.629 38.6603Z" fill="#30AE92"/>
</svg>
