<svg width="221" height="228" viewBox="0 0 221 228" fill="none" xmlns="http://www.w3.org/2000/svg">
<path d="M23.6631 100.029C23.6631 100.029 62.434 98.4768 70.8125 34.7457C78.2528 -21.8536 143.631 3.90831 162.529 26.4702C187.01 55.6971 173.96 105.974 205.629 112.325C237.299 118.676 216.618 189.293 168.546 182.533C108.746 174.125 123.214 209.069 105.262 223.86C92.3786 234.475 39.5515 224.256 37.7908 185.723C36.3092 153.297 22.6315 153.4 12.9366 149.723C-1.04559 144.421 -9.85593 106.017 23.6631 100.029Z" fill="#4AE8C6" fill-opacity="0.3"/>
<path d="M172.301 165.608L134.21 127.969L126.667 135.602L164.759 173.242L172.301 165.608Z" fill="#30AE92"/>
<path d="M186.852 175.722L157.217 146.439C157.052 146.276 156.786 146.277 156.623 146.442L145.406 157.794C145.243 157.959 145.245 158.225 145.41 158.388L175.045 187.671C175.21 187.834 175.476 187.833 175.639 187.668L186.856 176.316C187.019 176.151 187.017 175.885 186.852 175.722Z" fill="#008064"/>
<path fill-rule="evenodd" clip-rule="evenodd" d="M147.899 99.4495C147.899 125.655 126.655 146.899 100.45 146.899C74.244 146.899 53.0001 125.655 53.0001 99.4495C53.0001 73.2439 74.244 52 100.45 52C126.655 52 147.899 73.2439 147.899 99.4495ZM140.157 99.4496C140.157 121.379 122.379 139.157 100.45 139.157C78.52 139.157 60.7424 121.379 60.7424 99.4496C60.7424 77.52 78.52 59.7424 100.45 59.7424C122.379 59.7424 140.157 77.52 140.157 99.4496Z" fill="#008064"/>
<g clip-path="url(#clip0_309_160)">
<path d="M186.35 116.884L182.547 121.404L181.797 120.773L181.785 120.781L180.976 121.309L177.745 116.364L179.41 115.276L180.977 117.675L181.204 113.921L183.188 114.041L182.959 117.825L184.828 115.603L186.35 116.884Z" fill="#008064"/>
<path d="M186.35 116.884L182.547 121.404L181.797 120.773L181.785 120.781L182.196 113.981L183.188 114.041L182.959 117.825L184.828 115.603L186.35 116.884Z" fill="#005C49"/>
<path d="M187.419 125.601C187.378 126.275 187.265 127.163 187.096 128.183C186.993 128.797 186.871 129.459 186.732 130.152C186.351 132.049 185.843 134.175 185.282 136.17C185.213 136.415 185.142 136.665 185.068 136.919C184.881 137.556 184.68 138.215 184.463 138.874C183.51 141.78 182.288 144.694 180.963 145.826L180.234 146.449L179.585 145.743C178.032 144.052 177.028 139.314 176.46 135.637C176.357 134.972 176.261 134.294 176.175 133.615C176.088 132.943 176.01 132.27 175.94 131.61C175.736 129.662 175.611 127.815 175.588 126.383C175.579 125.813 175.586 125.307 175.612 124.887C175.622 124.718 175.637 124.554 175.657 124.396C175.921 122.259 177.002 121.099 177.897 120.493C178.926 119.794 179.918 119.68 180.028 119.669L180.106 119.661L183.586 119.871L183.663 119.889C183.771 119.912 184.742 120.146 185.679 120.963C186.555 121.725 187.567 123.149 187.419 125.601Z" fill="#30AE92"/>
<path d="M187.419 125.601C187.378 126.275 187.265 127.163 187.095 128.183C186.993 128.797 186.871 129.459 186.732 130.153C186.351 132.049 185.843 134.175 185.282 136.17C185.213 136.415 185.142 136.665 185.068 136.919C184.881 137.557 184.679 138.216 184.463 138.874C183.51 141.78 182.288 144.694 180.963 145.826L180.234 146.449L181.846 119.766L183.587 119.871L183.663 119.889C183.771 119.912 184.742 120.146 185.679 120.963C186.555 121.725 187.567 123.149 187.419 125.601Z" fill="#008064"/>
<path d="M178.934 124.594L178.814 126.578L175.587 126.383C175.579 125.813 175.586 125.307 175.611 124.887C175.622 124.718 175.637 124.554 175.656 124.396L178.934 124.594Z" fill="#38D7B5" fill-opacity="0.9"/>
<path d="M187.095 128.183C186.993 128.797 186.871 129.459 186.731 130.153L183.385 129.95L183.505 127.966L187.095 128.183Z" fill="#00FDC7" fill-opacity="0.5"/>
<path d="M176.175 133.615L179.379 133.809L179.499 131.825L175.94 131.61L176.175 133.615Z" fill="#38D7B5" fill-opacity="0.9"/>
<path d="M185.068 136.919C184.881 137.557 184.68 138.216 184.463 138.874L181.478 138.694L181.598 136.71L185.068 136.919Z" fill="#00FDC7" fill-opacity="0.5"/>
</g>
<g clip-path="url(#clip1_309_160)">
<path d="M124.549 79.1061L112.383 83.8053L111.603 81.7871L111.572 81.79L109.446 81.9513L108.456 68.9471L112.833 68.6133L113.313 74.9214L117.745 67.9007L121.456 70.2437L116.989 77.3213L122.968 75.011L124.549 79.1061Z" fill="#008064"/>
<path d="M124.549 79.106L112.383 83.8052L111.603 81.7871L111.572 81.79L119.601 69.0721L121.456 70.2436L116.989 77.3213L122.968 75.0109L124.549 79.106Z" fill="#005C49"/>
<path d="M117.345 97.1071C116.548 98.369 115.385 99.9651 113.972 101.759C113.122 102.838 112.18 103.989 111.173 105.182C108.418 108.446 105.175 112.019 101.968 115.282C101.573 115.683 101.169 116.09 100.756 116.503C99.7174 117.537 98.626 118.597 97.5065 119.642C92.5723 124.248 87.1087 128.587 83.3395 129.367L81.2674 129.796L80.7637 127.741C79.5565 122.818 82.6554 112.583 85.4673 104.865C85.976 103.47 86.5123 102.056 87.0667 100.651C87.614 99.2582 88.1782 97.8738 88.7465 96.5215C90.423 92.5364 92.1447 88.8307 93.6235 86.0359C94.214 84.9224 94.7658 83.9524 95.2618 83.1667C95.4617 82.8501 95.6652 82.5495 95.8713 82.2643C98.6556 78.4127 101.982 77.3171 104.357 77.0965C107.091 76.8401 109.131 77.6729 109.356 77.7695L109.515 77.8373L116.025 81.9468L116.155 82.0616C116.339 82.2226 117.968 83.7062 118.913 86.2853C119.796 88.6908 120.24 92.5211 117.345 97.1071Z" fill="#30AE92"/>
<path d="M117.345 97.1071C116.548 98.369 115.385 99.965 113.972 101.759C113.122 102.838 112.18 103.989 111.173 105.182C108.418 108.446 105.175 112.019 101.968 115.281C101.573 115.683 101.169 116.09 100.756 116.503C99.7174 117.537 98.626 118.597 97.5065 119.642C92.5723 124.248 87.1087 128.587 83.3395 129.367L81.2674 129.796L112.77 79.8921L116.025 81.9468L116.155 82.0616C116.339 82.2226 117.968 83.7062 118.913 86.2853C119.796 88.6907 120.24 92.521 117.345 97.1071Z" fill="#008064"/>
<path d="M102.001 86.134L99.6581 89.8454L93.6234 86.0358C94.2138 84.9224 94.7656 83.9523 95.2616 83.1667C95.4615 82.85 95.665 82.5494 95.8711 82.2642L102.001 86.134Z" fill="#38D7B5" fill-opacity="0.9"/>
<path d="M113.972 101.759C113.121 102.838 112.18 103.989 111.173 105.182L104.914 101.231L107.257 97.5195L113.972 101.759Z" fill="#00FDC7" fill-opacity="0.5"/>
<path d="M87.0667 100.651L93.0593 104.434L95.4022 100.723L88.7465 96.5215L87.0667 100.651Z" fill="#38D7B5" fill-opacity="0.9"/>
<path d="M100.756 116.503C99.7173 117.537 98.6259 118.598 97.5065 119.642L91.9232 116.117L94.2661 112.406L100.756 116.503Z" fill="#00FDC7" fill-opacity="0.5"/>
</g>
<g clip-path="url(#clip2_309_160)">
<path d="M66.4921 157.17L67.2438 164.932L65.9561 165.056L65.9527 165.075L65.704 166.325L58.0551 164.806L58.5662 162.231L62.2765 162.968L58.945 159.288L60.8909 157.526L64.2493 161.237L63.8795 157.422L66.4921 157.17Z" fill="#008064"/>
<path d="M66.4921 157.17L67.2438 164.932L65.9561 165.056L65.9527 165.075L59.918 158.407L60.8909 157.527L64.2493 161.237L63.8795 157.422L66.4921 157.17Z" fill="#005C49"/>
<path d="M75.7024 164.212C76.3012 164.873 77.0335 165.8 77.8395 166.901C78.3243 167.565 78.8361 168.292 79.3613 169.064C80.7989 171.175 82.3352 173.617 83.6992 175.988C83.8667 176.28 84.0364 176.578 84.2077 176.882C84.6366 177.647 85.0719 178.446 85.4934 179.258C87.3538 182.841 88.9745 186.685 88.8181 188.981L88.7323 190.243L87.4677 190.203C84.4382 190.107 79.0417 186.678 75.0482 183.818C74.3263 183.301 73.5981 182.765 72.8783 182.22C72.1638 181.681 71.4572 181.133 70.7696 180.589C68.7438 178.983 66.8861 177.396 65.5141 176.095C64.9677 175.576 64.4976 175.102 64.1248 174.69C63.9746 174.524 63.8341 174.359 63.703 174.194C61.9321 171.972 61.8356 169.88 62.0901 168.476C62.3819 166.86 63.1894 165.819 63.2811 165.705L63.3458 165.624L66.7587 162.535L66.8457 162.479C66.968 162.399 68.0843 161.699 69.7215 161.569C71.2489 161.447 73.5262 161.807 75.7024 164.212Z" fill="#30AE92"/>
<path d="M75.7023 164.211C76.3011 164.873 77.0334 165.8 77.8394 166.901C78.3242 167.565 78.8361 168.292 79.3612 169.064C80.7988 171.175 82.3352 173.617 83.6991 175.988C83.8667 176.28 84.0364 176.578 84.2077 176.882C84.6366 177.647 85.0718 178.446 85.4933 179.258C87.3538 182.841 88.9745 186.684 88.818 188.981L88.7322 190.243L65.0522 164.08L66.7587 162.535L66.8457 162.479C66.968 162.399 68.0843 161.699 69.7215 161.569C71.2488 161.447 73.5262 161.807 75.7023 164.211Z" fill="#008064"/>
<path d="M66.9168 171.285L68.6779 173.231L65.514 176.095C64.9676 175.576 64.4975 175.102 64.1248 174.69C63.9745 174.524 63.8341 174.359 63.7029 174.194L66.9168 171.285Z" fill="#38D7B5" fill-opacity="0.9"/>
<path d="M77.8395 166.901C78.3242 167.565 78.8361 168.292 79.3612 169.064L76.0799 172.034L74.3188 170.088L77.8395 166.901Z" fill="#00FDC7" fill-opacity="0.5"/>
<path d="M72.8783 182.22L76.0201 179.376L74.259 177.43L70.7695 180.589L72.8783 182.22Z" fill="#38D7B5" fill-opacity="0.9"/>
<path d="M84.2077 176.882C84.6366 177.647 85.0718 178.446 85.4933 179.258L82.5662 181.908L80.8051 179.962L84.2077 176.882Z" fill="#00FDC7" fill-opacity="0.5"/>
</g>
<defs>
<clipPath id="clip0_309_160">
<rect width="32.527" height="32.527" fill="white" transform="translate(165.962 113) rotate(3.45806)"/>
</clipPath>
<clipPath id="clip1_309_160">
<rect width="71.8109" height="71.8109" fill="white" transform="translate(89.2389 49.9055) rotate(32.2632)"/>
</clipPath>
<clipPath id="clip2_309_160">
<rect width="42.9394" height="42.9394" fill="white" transform="translate(44 172.814) rotate(-42.1477)"/>
</clipPath>
</defs>
</svg>
